<svg xmlns="http://www.w3.org/2000/svg" viewBox="0 0 64 64">
  <path d="M13 2C11.347656 2 10 3.347656 10 5C10 6.300781 10.839844 7.402344 12 7.816406L12 14.578125C12 16.449219 13.019531 18.140625 14.671875 19.011719L28 26.019531L28 27C28 28.191406 28.699219 29.21875 29.710938 29.699219L26.1875 38.347656L12.910156 39.5625C12.511719 39.601563 12.171875 39.871094 12.050781 40.25C11.929688 40.628906 12.039063 41.050781 12.339844 41.3125L22.359375 50.070313L19.289063 62.660156C19.1875 63.050781 19.339844 63.460938 19.671875 63.699219C20 63.9375 20.4375 63.960938 20.78125 63.738281L32 56.800781L43.21875 63.738281C43.378906 63.839844 43.558594 63.890625 43.738281 63.890625C43.949219 63.890625 44.160156 63.828125 44.328125 63.699219C44.660156 63.460938 44.8125 63.050781 44.710938 62.660156L41.640625 50.070313L51.660156 41.3125C51.960938 41.050781 52.070313 40.628906 51.949219 40.25C51.828125 39.871094 51.488281 39.601563 51.089844 39.5625L37.8125 38.347656L34.289063 29.699219C35.300781 29.21875 36 28.191406 36 27L36 26.019531L49.328125 19.011719C50.980469 18.140625 52 16.449219 52 14.578125L52 7.816406C53.160156 7.402344 54 6.300781 54 5C54 3.347656 52.652344 2 51 2 Z M 13 4L51 4C51.550781 4 52 4.449219 52 5C52 5.550781 51.550781 6 51 6L13 6C12.449219 6 12 5.550781 12 5C12 4.449219 12.449219 4 13 4 Z M 14 8L22 8L22 20.609375L15.597656 17.238281C14.609375 16.71875 14 15.699219 14 14.578125 Z M 24 8L40 8L40 21.660156L35.78125 23.878906C35.328125 22.78125 34.25 22 33 22L31 22C29.75 22 28.671875 22.78125 28.21875 23.878906L24 21.660156 Z M 42 8L50 8L50 14.578125C50 15.699219 49.390625 16.71875 48.402344 17.238281L42 20.609375 Z M 31 24L33 24C33.488281 24 33.902344 24.359375 33.980469 24.828125C33.992188 24.878906 34 24.941406 34 25L34 27C34 27.03125 34 27.050781 33.988281 27.078125C33.960938 27.398438 33.789063 27.679688 33.53125 27.839844C33.378906 27.941406 33.199219 28 33 28L31 28C30.800781 28 30.621094 27.941406 30.46875 27.839844C30.210938 27.679688 30.039063 27.398438 30.011719 27.078125C30 27.050781 30 27.03125 30 27L30 25C30 24.941406 30.007813 24.878906 30.019531 24.828125C30.097656 24.359375 30.511719 24 31 24 Z M 31.761719 30L32.238281 30L36.1875 39.671875C36.328125 40.019531 36.648438 40.257813 37.03125 40.289063L48.578125 41.339844L44.890625 44.566406C44.730469 44.234375 44.394531 44 44 44C43.445313 44 43 44.449219 43 45L43 46C43 46.066406 43.023438 46.125 43.035156 46.1875L39.859375 48.96875C39.578125 49.210938 39.460938 49.601563 39.550781 49.960938L42.1875 60.761719L32.53125 54.78125C32.371094 54.679688 32.179688 54.628906 32 54.628906C31.820313 54.628906 31.628906 54.679688 31.46875 54.78125L21.8125 60.761719L24.449219 49.960938C24.539063 49.601563 24.421875 49.210938 24.140625 48.96875L19.9375 45.296875C19.96875 45.199219 20 45.101563 20 45C20 44.738281 19.890625 44.480469 19.710938 44.300781C19.421875 44.003906 18.949219 43.945313 18.578125 44.105469L15.421875 41.339844L26.96875 40.289063C27.351563 40.257813 27.671875 40.019531 27.8125 39.671875 Z M 24 44C23.445313 44 23 44.449219 23 45L23 47C23 47.550781 23.445313 48 24 48C24.554688 48 25 47.550781 25 47L25 45C25 44.449219 24.554688 44 24 44 Z M 29 44C28.445313 44 28 44.449219 28 45L28 47C28 47.550781 28.445313 48 29 48C29.554688 48 30 47.550781 30 47L30 45C30 44.449219 29.554688 44 29 44 Z M 34 44C33.445313 44 33 44.449219 33 45L33 47C33 47.550781 33.445313 48 34 48C34.554688 48 35 47.550781 35 47L35 45C35 44.449219 34.554688 44 34 44 Z M 39 44C38.445313 44 38 44.449219 38 45L38 47C38 47.550781 38.445313 48 39 48C39.554688 48 40 47.550781 40 47L40 45C40 44.449219 39.554688 44 39 44 Z M 27 50C26.445313 50 26 50.449219 26 51C26 51.550781 26.445313 52 27 52L37 52C37.554688 52 38 51.550781 38 51C38 50.449219 37.554688 50 37 50Z" fill="#7F8DFF" />
</svg>