<svg xmlns="http://www.w3.org/2000/svg" viewBox="0 0 50 50">
  <path d="M4.59375 1.96875C4.550781 1.976563 4.507813 1.988281 4.46875 2C4.15625 2.054688 3.890625 2.253906 3.746094 2.539063C3.605469 2.820313 3.605469 3.15625 3.75 3.4375L12.8125 21.65625C10.441406 24.445313 9 28.058594 9 32C9 40.824219 16.175781 48 25 48C33.824219 48 41 40.824219 41 32C41 28.082031 39.59375 24.472656 37.25 21.6875L46.875 3.46875C47.066406 3.144531 47.058594 2.738281 46.851563 2.421875C46.648438 2.105469 46.28125 1.929688 45.90625 1.96875C45.863281 1.976563 45.820313 1.988281 45.78125 2C45.496094 2.070313 45.253906 2.265625 45.125 2.53125L35.75 20.1875C35.359375 19.832031 34.953125 19.503906 34.53125 19.1875L42.5 3.4375C42.664063 3.105469 42.632813 2.710938 42.417969 2.40625C42.203125 2.105469 41.835938 1.949219 41.46875 2C41.140625 2.050781 40.859375 2.261719 40.71875 2.5625L32.875 18.09375C31.082031 17.078125 29.070313 16.386719 26.9375 16.125L33.3125 3.4375C33.476563 3.105469 33.445313 2.710938 33.230469 2.40625C33.015625 2.105469 32.648438 1.949219 32.28125 2C31.953125 2.050781 31.671875 2.261719 31.53125 2.5625L24.78125 16C24.273438 16.007813 23.777344 16.039063 23.28125 16.09375L29.59375 3.4375C29.757813 3.105469 29.726563 2.710938 29.511719 2.40625C29.296875 2.105469 28.929688 1.949219 28.5625 2C28.234375 2.050781 27.953125 2.261719 27.8125 2.5625L25.03125 8.09375L22.1875 2.53125C21.988281 2.140625 21.558594 1.925781 21.125 2C20.804688 2.050781 20.527344 2.253906 20.382813 2.546875C20.242188 2.839844 20.25 3.183594 20.40625 3.46875L23.84375 10.125C23.867188 10.191406 23.898438 10.253906 23.9375 10.3125L23.21875 11.71875L18.46875 2.53125C18.285156 2.152344 17.886719 1.925781 17.46875 1.96875C17.4375 1.976563 17.40625 1.988281 17.375 2C17.058594 2.058594 16.792969 2.269531 16.65625 2.558594C16.519531 2.847656 16.53125 3.1875 16.6875 3.46875L22.125 13.90625L20.78125 16.5625C19.46875 16.921875 18.21875 17.460938 17.0625 18.125L9.28125 2.5625C9.125 2.214844 8.789063 1.984375 8.40625 1.96875C8.332031 1.972656 8.257813 1.980469 8.1875 2C7.882813 2.0625 7.621094 2.265625 7.488281 2.546875C7.351563 2.832031 7.355469 3.160156 7.5 3.4375L15.40625 19.21875C15.019531 19.507813 14.640625 19.800781 14.28125 20.125L5.5625 2.5625C5.40625 2.214844 5.070313 1.984375 4.6875 1.96875C4.65625 1.96875 4.625 1.96875 4.59375 1.96875 Z M 25 18C32.742188 18 39 24.257813 39 32C39 39.742188 32.742188 46 25 46C17.257813 46 11 39.742188 11 32C11 27.273438 13.328125 23.097656 16.90625 20.5625C17.148438 20.503906 17.359375 20.359375 17.5 20.15625C19.664063 18.785156 22.242188 18 25 18 Z M 25.8125 19.03125L25.6875 21.03125L26.0625 21.0625L26.1875 21.0625L26.59375 21.125L26.90625 19.15625L26.375 19.0625L26.28125 19.0625 Z M 23.59375 19.0625L22.59375 19.21875L22.90625 21.21875L23.90625 21.0625 Z M 29.0625 19.65625L28.375 21.53125L29.3125 21.875L30 20 Z M 20.46875 19.8125L20 20L19.9375 20.03125L19.90625 20.03125L19.46875 20.25L20.34375 22.0625L20.6875 21.875L20.71875 21.875L20.75 21.84375L21.15625 21.6875 Z M 31.9375 21.03125L30.90625 22.71875L31.125 22.84375L31.1875 22.90625L31.65625 23.25L32.84375 21.65625L32.3125 21.25L32.28125 21.21875L32.21875 21.1875 Z M 17.5625 21.34375L16.78125 21.9375L16.71875 21.96875L16.6875 22L17.375 22.75L17.46875 22.875L17.96875 23.53125L18.03125 23.5L18.03125 23.46875L18.75 22.9375 Z M 34.46875 23.125L33 24.46875L33.46875 24.96875L33.53125 25.03125L33.59375 25.15625L35.1875 23.9375L35.0625 23.78125L35.03125 23.71875L35 23.6875 Z M 15.1875 23.5L14.96875 23.71875L14.9375 23.78125L14.5 24.34375L16.09375 25.5625L16.46875 25.03125L16.65625 24.84375 Z M 24.875 24.84375C24.488281 26.269531 23.789063 27.625 20.75 27.625L20.75 29.78125L24.28125 29.78125L24.28125 38.84375L27.125 38.84375L27.125 24.84375 Z M 36.375 25.6875L34.875 26.59375L34.65625 26.71875L34.65625 26.75L35.0625 27.5625L36.84375 26.6875L36.4375 25.84375L36.4375 25.8125 Z M 13.375 26.25L13.03125 26.90625L13.03125 26.9375L13 27L12.90625 27.25L14.78125 27.9375L14.84375 27.75L14.875 27.6875L15.15625 27.09375 Z M 37.59375 28.78125L35.65625 29.28125L35.78125 29.84375L35.8125 29.84375L35.84375 30.15625L37.8125 29.84375L37.75 29.4375L37.75 29.375L37.71875 29.34375 Z M 12.28125 29.25L12.28125 29.34375L12.25 29.375L12.25 29.4375L12.125 30.34375L14.09375 30.65625L14.1875 29.84375L14.21875 29.84375L14.21875 29.71875L13.96875 29.6875 Z M 36 31.9375L36 32.0625L35.9375 32.96875L37.9375 33.0625L38 32.0625 Z M 14.03125 32.4375L12.03125 32.5625L12.0625 33.28125L12.0625 33.375L12.125 33.65625L14.09375 33.34375L14.0625 33.1875L14.0625 33.0625 Z M 35.65625 34.71875L35.53125 35.21875L35.5 35.25L35.5 35.3125L35.375 35.59375L37.25 36.28125L37.40625 35.90625L37.40625 35.875L37.4375 35.8125L37.59375 35.21875 Z M 14.46875 35.21875L12.53125 35.71875L12.5625 35.8125L12.59375 35.875L12.59375 35.90625L12.90625 36.75L14.78125 36.0625L14.5 35.3125 Z M 34.65625 37.25L34.125 38.125L35.84375 39.15625L36.375 38.3125 Z M 15.59375 37.6875L13.90625 38.71875L14.1875 39.21875L14.21875 39.28125L14.25 39.3125L14.5 39.65625L16.09375 38.4375L15.90625 38.1875L15.84375 38.125 Z M 33 39.53125L32.8125 39.75L32.75 39.8125L32.34375 40.15625L33.6875 41.65625L34.15625 41.21875L34.21875 41.15625L34.46875 40.875 Z M 17.28125 39.84375L15.9375 41.3125L16.6875 42L18.03125 40.5 Z M 30.90625 41.28125L30.28125 41.65625L30.1875 41.6875L30.125 41.71875L31 43.53125L31.15625 43.4375L31.1875 43.4375L31.25 43.40625L31.9375 42.96875 Z M 19.53125 41.53125L18.5 43.25L18.75 43.40625L18.8125 43.4375L18.84375 43.4375L19.46875 43.75L20.34375 41.9375L19.8125 41.6875L19.71875 41.65625 Z M 28.375 42.46875L28.3125 42.5L28.25 42.5L28.21875 42.53125L27.5 42.71875L28 44.65625L28.8125 44.4375L28.875 44.40625L28.90625 44.40625L29.0625 44.34375 Z M 22.03125 42.59375L21.53125 44.53125L22.34375 44.71875L22.375 44.75L22.4375 44.75L22.59375 44.78125L22.90625 42.78125L22.84375 42.78125 Z M 25.6875 42.96875L25.0625 43L24.8125 43L24.6875 45L25.0625 45L25.8125 44.96875Z" fill="#7F8DFF" />
</svg>