<svg xmlns="http://www.w3.org/2000/svg" viewBox="0 0 64 64">
  <path d="M32 0.578125C31.328125 0.578125 30.660156 0.800781 30.109375 1.242188L26.78125 3.941406C26.558594 4.121094 26.277344 4.199219 25.992188 4.152344L21.757813 3.480469C20.359375 3.257813 18.988281 4.054688 18.484375 5.367188L16.949219 9.375C16.847656 9.636719 16.636719 9.847656 16.375 9.949219L12.371094 11.484375C11.054688 11.988281 10.261719 13.363281 10.484375 14.753906L11.15625 18.992188C11.199219 19.269531 11.121094 19.558594 10.941406 19.777344L8.242188 23.109375C7.355469 24.207031 7.355469 25.792969 8.242188 26.886719L10.941406 30.21875C11.121094 30.441406 11.199219 30.726563 11.15625 31.003906L10.484375 35.242188C10.261719 36.632813 11.054688 38.007813 12.371094 38.515625L16.375 40.050781C16.640625 40.152344 16.847656 40.363281 16.949219 40.625L18 43.363281L18 60.089844C18 61.078125 18.488281 62 19.300781 62.5625C19.808594 62.910156 20.402344 63.089844 21 63.089844C21.363281 63.089844 21.726563 63.023438 22.078125 62.890625L30.921875 59.484375C31.617188 59.21875 32.382813 59.21875 33.078125 59.484375L41.921875 62.886719C42.847656 63.242188 43.882813 63.121094 44.699219 62.5625C45.511719 62 46 61.078125 46 60.089844L46 43.363281L47.050781 40.625C47.152344 40.363281 47.363281 40.152344 47.625 40.050781L51.628906 38.515625C52.945313 38.007813 53.738281 36.632813 53.519531 35.242188L52.847656 31.007813C52.804688 30.730469 52.878906 30.441406 53.058594 30.21875L55.757813 26.890625C56.644531 25.792969 56.644531 24.207031 55.757813 23.109375L53.058594 19.78125C52.878906 19.558594 52.804688 19.269531 52.847656 18.992188L53.519531 14.753906C53.742188 13.363281 52.945313 11.988281 51.628906 11.484375L47.625 9.949219C47.363281 9.847656 47.152344 9.636719 47.050781 9.375L45.515625 5.367188C45.007813 4.054688 43.640625 3.257813 42.246094 3.480469L38.007813 4.152344C37.722656 4.199219 37.441406 4.121094 37.222656 3.941406L33.890625 1.242188C33.339844 0.800781 32.671875 0.578125 32 0.578125 Z M 32 2.578125C32.222656 2.578125 32.445313 2.652344 32.628906 2.796875L35.960938 5.496094C36.621094 6.03125 37.480469 6.261719 38.316406 6.128906L42.554688 5.457031C43.015625 5.386719 43.476563 5.648438 43.644531 6.085938L45.183594 10.09375C45.488281 10.886719 46.117188 11.511719 46.90625 11.816406L50.910156 13.355469C51.351563 13.523438 51.617188 13.980469 51.542969 14.441406L50.871094 18.679688C50.738281 19.519531 50.96875 20.378906 51.5 21.035156L54.203125 24.371094C54.496094 24.734375 54.496094 25.265625 54.203125 25.628906L51.503906 28.964844C50.96875 29.621094 50.738281 30.480469 50.871094 31.320313L51.546875 35.558594C51.617188 36.019531 51.351563 36.476563 50.914063 36.644531L46.90625 38.183594C46.117188 38.488281 45.488281 39.113281 45.183594 39.90625L43.644531 43.914063C43.476563 44.351563 43.019531 44.617188 42.558594 44.542969L38.320313 43.871094C37.480469 43.738281 36.621094 43.96875 35.964844 44.503906L32.628906 47.203125C32.265625 47.5 31.734375 47.496094 31.371094 47.203125L28.035156 44.503906C27.5 44.066406 26.832031 43.832031 26.144531 43.832031C25.992188 43.832031 25.835938 43.847656 25.679688 43.871094L21.441406 44.542969C20.988281 44.617188 20.523438 44.351563 20.355469 43.910156L18.816406 39.90625C18.511719 39.113281 17.882813 38.488281 17.089844 38.183594L13.085938 36.644531C12.648438 36.476563 12.382813 36.019531 12.453125 35.558594L13.125 31.320313C13.261719 30.480469 13.03125 29.621094 12.496094 28.964844L9.796875 25.628906C9.5 25.265625 9.5 24.734375 9.796875 24.371094L12.496094 21.035156C13.03125 20.378906 13.261719 19.519531 13.125 18.683594L12.453125 14.445313C12.382813 13.980469 12.648438 13.523438 13.085938 13.355469L17.089844 11.816406C17.882813 11.515625 18.511719 10.886719 18.816406 10.09375L20.355469 6.085938C20.523438 5.648438 20.988281 5.386719 21.441406 5.457031L25.679688 6.128906C26.519531 6.261719 27.378906 6.03125 28.035156 5.496094L31.371094 2.796875C31.550781 2.652344 31.773438 2.578125 32 2.578125 Z M 31.78125 11C28.152344 11.058594 24.695313 12.507813 22.101563 15.101563C19.457031 17.746094 18 21.261719 18 25C18 25.550781 18.445313 26 19 26C19.554688 26 20 25.550781 20 25C20 21.796875 21.25 18.78125 23.515625 16.515625C26.054688 13.972656 29.570313 12.714844 33.152344 13.054688C33.726563 13.109375 34.191406 12.703125 34.242188 12.15625C34.292969 11.605469 33.890625 11.117188 33.34375 11.0625C32.820313 11.015625 32.296875 10.992188 31.78125 11 Z M 38.171875 12.511719C37.78125 12.476563 37.394531 12.671875 37.199219 13.039063C36.941406 13.527344 37.128906 14.132813 37.613281 14.390625C38.378906 14.792969 39.101563 15.285156 39.761719 15.847656C39.949219 16.007813 40.179688 16.085938 40.40625 16.085938C40.691406 16.085938 40.972656 15.964844 41.171875 15.734375C41.53125 15.3125 41.476563 14.679688 41.058594 14.324219C40.285156 13.667969 39.441406 13.09375 38.550781 12.625C38.429688 12.558594 38.300781 12.519531 38.171875 12.511719 Z M 43.019531 17.335938C42.894531 17.355469 42.765625 17.398438 42.644531 17.46875C42.171875 17.753906 42.019531 18.367188 42.300781 18.84375C44.21875 22.042969 44.53125 26.027344 43.128906 29.496094C42.921875 30.007813 43.167969 30.59375 43.683594 30.796875C43.804688 30.847656 43.933594 30.871094 44.058594 30.871094C44.453125 30.871094 44.828125 30.632813 44.984375 30.246094C46.617188 26.195313 46.253906 21.550781 44.015625 17.8125C43.804688 17.457031 43.40625 17.28125 43.019531 17.335938 Z M 20.890625 28.496094C20.761719 28.492188 20.625 28.515625 20.5 28.566406L18.644531 29.316406C18.132813 29.523438 17.886719 30.105469 18.09375 30.621094C18.25 31.007813 18.625 31.246094 19.019531 31.246094C19.144531 31.246094 19.273438 31.222656 19.394531 31.171875L21.25 30.421875C21.761719 30.214844 22.007813 29.632813 21.800781 29.121094C21.644531 28.738281 21.28125 28.503906 20.890625 28.496094 Z M 23.515625 32.484375C23.257813 32.484375 23.003906 32.582031 22.808594 32.777344L21.394531 34.191406C21.003906 34.582031 21.003906 35.214844 21.394531 35.605469C21.589844 35.800781 21.84375 35.898438 22.101563 35.898438C22.359375 35.898438 22.613281 35.800781 22.808594 35.605469L24.222656 34.191406C24.613281 33.800781 24.613281 33.167969 24.222656 32.777344C24.027344 32.582031 23.769531 32.484375 23.515625 32.484375 Z M 40.484375 32.484375C40.230469 32.484375 39.972656 32.582031 39.777344 32.777344C39.386719 33.167969 39.386719 33.800781 39.777344 34.191406L41.191406 35.605469C41.386719 35.800781 41.640625 35.898438 41.898438 35.898438C42.15625 35.898438 42.410156 35.800781 42.605469 35.605469C42.996094 35.214844 42.996094 34.582031 42.605469 34.191406L41.191406 32.777344C40.996094 32.582031 40.738281 32.484375 40.484375 32.484375 Z M 27.3125 35.046875C26.925781 35.042969 26.550781 35.273438 26.390625 35.65625L25.609375 37.496094C25.390625 38.003906 25.628906 38.589844 26.140625 38.808594C26.265625 38.859375 26.398438 38.886719 26.53125 38.886719C26.917969 38.886719 27.289063 38.65625 27.449219 38.277344L28.230469 36.4375C28.449219 35.929688 28.210938 35.339844 27.703125 35.125C27.574219 35.070313 27.445313 35.046875 27.3125 35.046875 Z M 36.511719 35.125C36.378906 35.121094 36.25 35.144531 36.121094 35.199219C35.609375 35.402344 35.363281 35.988281 35.566406 36.5L36.316406 38.355469C36.472656 38.742188 36.847656 38.980469 37.246094 38.980469C37.371094 38.980469 37.496094 38.957031 37.617188 38.90625C38.128906 38.699219 38.378906 38.117188 38.171875 37.605469L37.421875 35.75C37.265625 35.367188 36.898438 35.132813 36.511719 35.125 Z M 32 36C31.445313 36 31 36.449219 31 37L31 39C31 39.550781 31.445313 40 32 40C32.554688 40 33 39.550781 33 39L33 37C33 36.449219 32.554688 36 32 36 Z M 25.992188 45.847656C26.277344 45.800781 26.558594 45.882813 26.777344 46.058594L30.109375 48.757813C30.660156 49.199219 31.328125 49.421875 32 49.421875C32.671875 49.421875 33.339844 49.199219 33.890625 48.757813L37.222656 46.058594C37.441406 45.878906 37.726563 45.804688 38.007813 45.847656L42.246094 46.515625C42.859375 46.613281 43.464844 46.503906 44 46.25L44 60.089844C44 60.421875 43.84375 60.722656 43.566406 60.910156C43.289063 61.101563 42.949219 61.140625 42.640625 61.019531L33.796875 57.621094C32.636719 57.175781 31.359375 57.175781 30.203125 57.621094L21.359375 61.019531C21.046875 61.140625 20.707031 61.101563 20.433594 60.910156C20.15625 60.722656 20 60.421875 20 60.089844L20 46.25C20.53125 46.503906 21.140625 46.617188 21.753906 46.519531Z" fill="#7F8DFF" />
</svg>